<?xml version="1.0" standalone="no"?>
<!DOCTYPE svg PUBLIC "-//W3C//DTD SVG 20010904//EN"
 "http://www.w3.org/TR/2001/REC-SVG-20010904/DTD/svg10.dtd">
<svg version="1.0" xmlns="http://www.w3.org/2000/svg"
 width="700.000000pt" height="700.000000pt" viewBox="0 0 700.000000 700.000000"
 preserveAspectRatio="xMidYMid meet">
<metadata>
Created by potrace 1.11, written by Peter Selinger 2001-2013
</metadata>
<g transform="translate(0.000000,700.000000) scale(0.100000,-0.100000)"
fill="#000000" stroke="none">
<path d="M3298 6995 c-2 -1 -41 -5 -88 -9 -100 -7 -225 -22 -295 -36 -27 -5
-61 -12 -75 -14 -596 -109 -1206 -409 -1660 -817 -126 -114 -178 -166 -331
-335 -115 -127 -297 -386 -398 -567 -232 -417 -362 -811 -428 -1296 -12 -89
-17 -200 -17 -381 -1 -277 4 -377 29 -545 166 -1130 876 -2114 1893 -2624 361
-181 733 -293 1172 -352 128 -17 611 -19 760 -3 958 103 1812 578 2405 1336
411 527 664 1171 723 1843 14 162 7 578 -13 715 -3 19 -7 56 -10 81 -3 25 -7
54 -9 65 -2 10 -11 60 -21 109 -57 307 -181 667 -320 930 -80 153 -109 201
-201 340 -508 766 -1296 1301 -2191 1489 -98 21 -243 43 -393 61 -54 7 -526
16 -532 10z"/>
</g>
</svg>
